<?xml version="1.0" ?><!DOCTYPE svg  PUBLIC '-//W3C//DTD SVG 1.1//EN'  'http://www.w3.org/Graphics/SVG/1.1/DTD/svg11.dtd'><svg height="2048px" style="shape-rendering:geometricPrecision; text-rendering:geometricPrecision; image-rendering:optimizeQuality; fill-rule:evenodd; clip-rule:evenodd" viewBox="0 0 2048 2048" width="2048px" xml:space="preserve" xmlns="http://www.w3.org/2000/svg" xmlns:xlink="http://www.w3.org/1999/xlink"><defs><style type="text/css">
   <![CDATA[
    .fil1 {fill:none}
    .fil0 {fill:#231F20}
   ]]>
  </style></defs><g id="Layer_x0020_1"><g id="_305703688"><path class="fil0" d="M1554.09 329.582c71.028,0 150.94,76.3583 150.94,152.71 0,46.1658 -60.3851,127.852 -129.636,127.852 -53.2772,0 -24.8516,-72.8044 -124.298,-97.6654 -21.3083,-8.87481 -30.1902,-23.0847 -30.1902,-42.6154 0,-79.9087 81.6839,-140.281 133.184,-140.281l0 0z" id="_305703976"/><path class="fil0" d="M903.187 896.305c0,-67.48 62.1497,-145.609 131.4,-145.609 39.0709,-0.00354331 85.239,35.5099 85.239,111.868 0.00354331,7.09843 -81.6851,142.055 -136.736,142.055 -49.7197,0 -79.9028,-44.3918 -79.9028,-108.314l0 0z" id="_305703856"/><path class="fil0" d="M1286.87 901.893l1.77047 -5.32796c17.7532,-63.9319 55.05,-99.443 95.895,-99.443 53.2713,-0.00354331 111.866,67.4764 111.866,150.933 0,65.7001 -40.8449,113.649 -90.5575,113.649 -37.3004,0 -55.0512,-23.0847 -71.0339,-67.48 -17.7508,-47.9398 -19.5343,-51.4937 -47.9433,-92.3316l0.00354331 0z" id="_305704072"/><path class="fil0" d="M1076.23 1114.23c0,-21.3083 15.9803,-31.963 40.8414,-31.963 120.751,0 147.383,30.1855 147.383,49.7197 0,17.7602 -7.09843,19.5366 -47.9433,26.6421 -42.6142,7.09725 -37.2874,30.1819 -53.2666,30.1819 -15.9933,0 -5.32796,-26.6386 -42.6284,-40.8449 -33.7335,-12.4287 -44.3859,-19.5272 -44.3859,-33.7359l0 0z" id="_305703928"/><path class="fil0" d="M1166.73 1290.66c-42.6189,0 -83.4603,-26.6457 -90.5717,-58.6087 60.3827,14.2099 108.323,21.3142 163.373,21.3142 -14.2063,23.0752 -37.2874,37.2945 -72.8008,37.2945l0 0zm491.198 -494.844c0,253.923 -122.518,371.126 -310.745,371.126 -72.8044,0 -35.517,69.2504 -110.092,69.2504 -30.1902,0 -47.9528,-31.9595 -83.4603,-31.9595 -19.5343,0 -40.8414,10.6524 -63.9331,10.6524 -74.5772,0 -58.5981,-81.6804 -83.4591,-92.3351 -104.764,-42.6225 -106.541,-42.6225 -126.072,-55.0512 -78.1323,-53.2772 -111.872,-126.082 -111.872,-236.166 0,-110.099 42.6154,-252.154 111.872,-314.309 21.3083,14.2063 33.737,21.3106 46.1622,21.3106 26.6421,0 35.5181,-37.2933 95.8961,-58.6016 74.5819,-26.6315 74.5819,-26.6315 74.5819,-65.7001 0,-102.993 -60.3792,-158.038 -124.302,-158.038 -83.4638,0 -165.147,69.254 -165.147,136.727 0,33.7441 19.5307,67.4764 46.1729,95.8891 -145.616,88.7906 -230.845,227.295 -230.845,395.985 0,56.8217 8.87481,76.3654 8.87481,117.201 0,47.9422 -17.7567,76.3607 -17.7567,122.526 0,23.0847 9.26103,69.0733 24.861,95.8891 -138.503,-102.997 -214.862,-236.173 -214.862,-390.657 0,-152.713 72.8044,-275.238 198.882,-364.029l8.87481 -7.10434c-175.792,72.8079 -292.995,253.93 -292.995,482.996 0,118.983 35.517,190.008 35.517,225.525 0,14.2028 -5.32678,46.1658 -5.32678,87.0072 0,72.8079 56.8241,207.762 106.544,271.684 39.065,49.7197 99.443,78.1453 170.471,78.1453 55.0477,0 92.3351,-17.7709 92.3351,-47.9528 0,-21.3083 -28.4126,-71.041 -30.1902,-182.89l97.6666 188.228c92.341,175.775 163.369,230.832 317.86,230.832 65.6965,0 106.538,-19.5272 106.538,-53.2678 0,-26.6445 -53.2678,-92.3351 -53.2678,-277.017 0,-83.4568 19.5343,-127.846 65.706,-127.846 33.7335,0 49.7138,28.3961 49.7138,92.315 0,95.9056 -23.0811,200.673 -23.0811,230.866 0,39.0449 28.4055,62.1556 85.2296,62.1556 97.6702,0 186.457,-60.3886 234.397,-149.185 71.0268,-131.38 120.761,-387.091 120.761,-513.173 0,-102.986 -24.8658,-209.531 -51.5103,-261.027l0 0z" id="_305704264"/></g></g><rect class="fil1" height="2048" width="2048"/></svg>